# xmcd
#
# Track frame offsets:
#	187
#	13745
#	30807
#	45992
#	61062
#	74435
#	93845
#	114572
#	133105
#	151457
#
# Disc length: 2270 seconds
#
# Revision: 3381224216
# Processed by: cddbd v1.5.2PL0 Copyright (c) Steve Scherf et al.
# Submitted via: EZCDAudioConverter 9.0.6.1
#
DISCID=7508dc0a
DTITLE=Jon Randall - What You Don't Know
DYEAR=1995
DGENRE=Country
TTITLE0=This Heart
TTITLE1=If Blue Tears Were Silver
TTITLE2=I Came Straight To You
TTITLE3=If I Hadn't Reached For The Stars
TTITLE4=To Pieces
TTITLE5=Tennessee Blues
TTITLE6=What You Don't Know
TTITLE7=Only Game In Town
TTITLE8=They're Gonna Miss Me When I'm Gone
TTITLE9=Just Like You
EXTD=
EXTT0=
EXTT1=
EXTT2=
EXTT3=
EXTT4=
EXTT5=
EXTT6=
EXTT7=
EXTT8=
EXTT9=
PLAYORDER=
